{"title":"The Hammer 2010 DVDRip XViD juggs","uid":8608762,"size":737947955,"categoryP":"video","categoryS":"movies","magnet":"?xt=urn:btih:1b6abebc6fdf605ad1f3c28dc78bade7d322c2ed&amp;dn=The+Hammer+2010+DVDRip+XViD+juggs&amp;tr=udp%3A%2F%2Ftracker.openbittorrent.com%3A80&amp;tr=udp%3A%2F%2Fopen.demonii.com%3A1337&amp;tr=udp%3A%2F%2Ftracker.coppersurfer.tk%3A6969&amp;tr=udp%3A%2F%2Fexodus.desync.com%3A6969","seeders":5,"leechers":1,"uploader":"juggs99","files":3,"time":1372083172,"description":"Source: DVDR-CoCaCoLa(Thanks)\n &lt;a href=&quot;\nhttp://www.imdb.com/title/tt1094666/&quot; rel=&quot;nofollow&quot; target=&quot;_NEW&quot;&gt;\nhttp://www.imdb.com/title/tt1094666/&lt;/a&gt;\n\n[icon=info]\nFormat: AVI\nFormat/Info: Audio Video Interleave\nFile size: 697 MiB\nDuration: 1h 48mn\nOverall bit rate: 895 Kbps\nWriting library: VirtualDub build 32842/release\n\nVideo\nID: 0\nFormat: MPEG-4 Visual\nFormat profile: Advanced Simple@L5\nFormat settings, BVOP: 2\nFormat settings, QPel: No\nFormat settings, GMC: No warppoints\nFormat settings, Matrix: Default (H.263)\nMuxing mode: Packed bitstream\nCodec ID: XVID\nCodec ID/Hint: XviD\nDuration: 1h 48mn\nBit rate: 758 Kbps\nWidth: 640 pixels\nHeight: 272 pixels\nDisplay aspect ratio: 2.35:1\nFrame rate: 23.976 fps\nColor space: YUV\nChroma subsampling: 4:2:0\nBit depth: 8 bits\nScan type: Progressive\nCompression mode: Lossy\nBits/(Pixel*Frame): 0.182\nStream size: 590 MiB (85%)\nWriting library: XviD 1.2.1 (UTC 2008-12-04)\n\nAudio\nID: 1\nFormat: MPEG Audio\nFormat version: Version 1\nFormat profile: Layer 3\nCodec ID: 55\nCodec ID/Hint: MP3\nDuration: 1h 48mn\nBit rate mode: Constant\nBit rate: 128 Kbps\nChannel(s): 2 channels\nSampling rate: 44.1 KHz\nCompression mode: Lossy\nStream size: 99.6 MiB (14%)\nAlignment: Split accross interleaves\nInterleave, duration: 42 ms (1.00 video frame)\nInterleave, preload duration: 500 ms\nWriting library: LAME3.99r\nEncoding settings: -m s -V 4 -q 3 -lowpass 17 -b 128\n\n\nA coming of age drama following the life of Matt Hamill, the first deaf wrestler to win a National Collegiate Wrestling Championship \n\n &lt;a href=&quot;\nhttp://img407.imageshack.us/img407/3104/jsn.png&quot; rel=&quot;nofollow&quot; target=&quot;_NEW&quot;&gt;\nhttp://img407.imageshack.us/img407/3104/jsn.png&lt;/a&gt; &lt;a href=&quot;\nhttp://img819.imageshack.us/img819/8757/974a.png&quot; rel=&quot;nofollow&quot; target=&quot;_NEW&quot;&gt;\nhttp://img819.imageshack.us/img819/8757/974a.png&lt;/a&gt; &lt;a href=&quot;\nhttp://img16.imageshack.us/img16/1483/syl.png&quot; rel=&quot;nofollow&quot; target=&quot;_NEW&quot;&gt;\nhttp://img16.imageshack.us/img16/1483/syl.png&lt;/a&gt;","torrent":{"xt":"urn:btih:1b6abebc6fdf605ad1f3c28dc78bade7d322c2ed","amp;dn":"The+Hammer+2010+DVDRip+XViD+juggs","amp;tr":["udp%3A%2F%2Ftracker.openbittorrent.com%3A80","udp%3A%2F%2Fopen.demonii.com%3A1337","udp%3A%2F%2Ftracker.coppersurfer.tk%3A6969","udp%3A%2F%2Fexodus.desync.com%3A6969"],"infoHash":"1b6abebc6fdf605ad1f3c28dc78bade7d322c2ed","infoHashBuffer":{"type":"Buffer","data":[27,106,190,188,111,223,96,90,209,243,194,141,199,139,173,231,211,34,194,237]},"announce":[],"urlList":[]}}